<svg width="55" height="56" viewBox="0 0 55 56" fill="none" xmlns="http://www.w3.org/2000/svg">
<rect y="0.447754" width="55" height="55" rx="27.5" fill="#1D413A"/>
<path fill-rule="evenodd" clip-rule="evenodd" d="M27.5 26.7479C28.4548 26.7479 29.3705 26.3686 30.0456 25.6934C30.7207 25.0183 31.1 24.1026 31.1 23.1479C31.1 22.1931 30.7207 21.2774 30.0456 20.6023C29.3705 19.9271 28.4548 19.5479 27.5 19.5479C26.5452 19.5479 25.6296 19.9271 24.9544 20.6023C24.2793 21.2774 23.9 22.1931 23.9 23.1479C23.9 24.1026 24.2793 25.0183 24.9544 25.6934C25.6296 26.3686 26.5452 26.7479 27.5 26.7479ZM22.3987 37.5478C20.5769 37.5478 19.0422 36.0164 19.7394 34.3333C20.1616 33.3142 20.7803 32.3882 21.5603 31.6082C22.3403 30.8281 23.2663 30.2094 24.2855 29.7873C25.3046 29.3651 26.3969 29.1479 27.5 29.1479C28.6031 29.1479 29.6954 29.3651 30.7145 29.7873C31.7337 30.2094 32.6597 30.8281 33.4397 31.6082C34.2197 32.3882 34.8385 33.3142 35.2606 34.3333C35.9578 36.0164 34.4232 37.5478 32.6014 37.5478H22.3987Z" fill="#FFDE00"/>
</svg>
