<svg width="33" height="33" viewBox="0 0 33 33" fill="none" xmlns="http://www.w3.org/2000/svg">
<path fill-rule="evenodd" clip-rule="evenodd" d="M16.5 0.679199C7.66344 0.679199 0.5 7.84264 0.5 16.6792C0.5 25.5158 7.66344 32.6792 16.5 32.6792C25.3366 32.6792 32.5 25.5158 32.5 16.6792C32.5 7.84264 25.3366 0.679199 16.5 0.679199ZM12.9823 8.19755C13.8925 8.15613 14.1834 8.146 16.5009 8.146H16.4983C18.8165 8.146 19.1063 8.15613 20.0165 8.19755C20.925 8.23915 21.5454 8.38298 22.0894 8.594C22.6512 8.81178 23.1259 9.10334 23.6005 9.57801C24.0752 10.0523 24.3668 10.5284 24.5854 11.0897C24.7952 11.6323 24.9392 12.2523 24.9819 13.1608C25.0228 14.071 25.0335 14.3619 25.0335 16.6794C25.0335 18.997 25.0228 19.2871 24.9819 20.1973C24.9392 21.1054 24.7952 21.7257 24.5854 22.2685C24.3668 22.8295 24.0752 23.3056 23.6005 23.7799C23.1264 24.2546 22.651 24.5469 22.09 24.7648C21.547 24.9759 20.9262 25.1197 20.0178 25.1613C19.1075 25.2027 18.8176 25.2128 16.4999 25.2128C14.1825 25.2128 13.8918 25.2027 12.9816 25.1613C12.0733 25.1197 11.453 24.9759 10.9101 24.7648C10.3492 24.5469 9.87312 24.2546 9.39898 23.7799C8.92449 23.3056 8.63293 22.8295 8.41479 22.2683C8.20394 21.7257 8.06012 21.1056 8.01834 20.1971C7.9771 19.2869 7.96679 18.997 7.96679 16.6794C7.96679 14.3619 7.97745 14.0709 8.01817 13.1606C8.05905 12.2525 8.20306 11.6323 8.41461 11.0895C8.63328 10.5284 8.92484 10.0523 9.39951 9.57801C9.87383 9.10352 10.3499 8.81196 10.9112 8.594C11.4538 8.38298 12.0739 8.23915 12.9823 8.19755Z" fill="white"/>
<path fill-rule="evenodd" clip-rule="evenodd" d="M15.7355 9.68329C15.8841 9.68305 16.044 9.68312 16.2166 9.6832L16.501 9.68329C18.7794 9.68329 19.0495 9.69146 19.9492 9.73235C20.7812 9.7704 21.2328 9.90942 21.5336 10.0262C21.9318 10.1809 22.2157 10.3658 22.5142 10.6645C22.8129 10.9631 22.9978 11.2476 23.1528 11.6458C23.2696 11.9462 23.4088 12.3978 23.4467 13.2298C23.4876 14.1294 23.4964 14.3996 23.4964 16.677C23.4964 18.9543 23.4876 19.2245 23.4467 20.1241C23.4086 20.9561 23.2696 21.4077 23.1528 21.7081C22.9981 22.1063 22.8129 22.3899 22.5142 22.6884C22.2155 22.9871 21.932 23.172 21.5336 23.3266C21.2331 23.444 20.7812 23.5826 19.9492 23.6207C19.0496 23.6616 18.7794 23.6705 16.501 23.6705C14.2224 23.6705 13.9524 23.6616 13.0528 23.6207C12.2208 23.5823 11.7692 23.4432 11.4682 23.3264C11.07 23.1718 10.7856 22.9869 10.4869 22.6882C10.1882 22.3896 10.0033 22.1058 9.84831 21.7074C9.73151 21.407 9.59231 20.9554 9.55444 20.1234C9.51355 19.2238 9.50537 18.9536 9.50537 16.6748C9.50537 14.396 9.51355 14.1272 9.55444 13.2277C9.59248 12.3957 9.73151 11.9441 9.84831 11.6433C10.003 11.2451 10.1882 10.9606 10.4869 10.662C10.7856 10.3633 11.07 10.1784 11.4682 10.0234C11.769 9.90604 12.2208 9.76738 13.0528 9.72915C13.84 9.6936 14.1451 9.68293 15.7355 9.68115V9.68329ZM21.0559 11.1001C20.4906 11.1001 20.0319 11.5583 20.0319 12.1238C20.0319 12.6891 20.4906 13.1478 21.0559 13.1478C21.6212 13.1478 22.0799 12.6891 22.0799 12.1238C22.0799 11.5584 21.6212 11.0998 21.0559 11.0998V11.1001ZM12.1188 16.678C12.1188 14.2579 14.0809 12.2958 16.5009 12.2957C18.921 12.2957 20.8826 14.2579 20.8826 16.678C20.8826 19.0981 18.9212 21.0594 16.5011 21.0594C14.081 21.0594 12.1188 19.0981 12.1188 16.678Z" fill="white"/>
<path fill-rule="evenodd" clip-rule="evenodd" d="M16.5007 13.8342C18.0716 13.8342 19.3452 15.1077 19.3452 16.6787C19.3452 18.2496 18.0716 19.5232 16.5007 19.5232C14.9297 19.5232 13.6562 18.2496 13.6562 16.6787C13.6562 15.1077 14.9297 13.8342 16.5007 13.8342V13.8342Z" fill="white"/>
</svg>
