<svg width="14" height="13" viewBox="0 0 14 13" fill="none" xmlns="http://www.w3.org/2000/svg">
<path d="M13.1891 4.71441L9.22187 4.13785L7.44844 0.542535C7.4 0.444098 7.32031 0.36441 7.22187 0.315973C6.975 0.194098 6.675 0.29566 6.55156 0.542535L4.77812 4.13785L0.810936 4.71441C0.701561 4.73004 0.601561 4.7816 0.524999 4.85972C0.432439 4.95486 0.381434 5.08285 0.383192 5.21557C0.38495 5.34829 0.439327 5.47489 0.534374 5.56754L3.40469 8.36597L2.72656 12.3175C2.71066 12.4095 2.72083 12.504 2.75592 12.5904C2.79102 12.6769 2.84963 12.7517 2.92511 12.8066C3.00059 12.8614 3.08992 12.894 3.18297 12.9006C3.27602 12.9072 3.36907 12.8877 3.45156 12.8441L7 10.9785L10.5484 12.8441C10.6453 12.8957 10.7578 12.9128 10.8656 12.8941C11.1375 12.8472 11.3203 12.5894 11.2734 12.3175L10.5953 8.36597L13.4656 5.56754C13.5437 5.49097 13.5953 5.39097 13.6109 5.2816C13.6531 5.00816 13.4625 4.75504 13.1891 4.71441Z" fill="#FEA250"/>
</svg>
