<svg width="16" height="17" viewBox="0 0 16 17" fill="none" xmlns="http://www.w3.org/2000/svg">
<path d="M14.1891 5.71441L10.2219 5.13785L8.44844 1.54254C8.4 1.4441 8.32031 1.36441 8.22187 1.31597C7.975 1.1941 7.675 1.29566 7.55156 1.54254L5.77812 5.13785L1.81094 5.71441C1.70156 5.73004 1.60156 5.7816 1.525 5.85972C1.43244 5.95486 1.38143 6.08285 1.38319 6.21557C1.38495 6.34829 1.43933 6.47488 1.53437 6.56754L4.40469 9.36597L3.72656 13.3175C3.71066 13.4095 3.72083 13.504 3.75592 13.5904C3.79102 13.6769 3.84963 13.7517 3.92511 13.8066C4.00059 13.8614 4.08992 13.894 4.18297 13.9006C4.27602 13.9072 4.36907 13.8877 4.45156 13.8441L8 11.9785L11.5484 13.8441C11.6453 13.8957 11.7578 13.9128 11.8656 13.8941C12.1375 13.8472 12.3203 13.5894 12.2734 13.3175L11.5953 9.36597L14.4656 6.56754C14.5437 6.49097 14.5953 6.39097 14.6109 6.2816C14.6531 6.00816 14.4625 5.75504 14.1891 5.71441Z" fill="#FEA250"/>
</svg>
