<svg width="24" height="25" viewBox="0 0 24 25" fill="none" xmlns="http://www.w3.org/2000/svg">
<path d="M10.486 16.7814C10.3547 16.7817 10.2247 16.756 10.1034 16.7059C9.98206 16.6558 9.87182 16.5822 9.779 16.4894L5.537 12.2464C5.44143 12.1542 5.36517 12.0439 5.31268 11.922C5.26018 11.8 5.23251 11.6688 5.23126 11.536C5.23001 11.4033 5.25522 11.2716 5.30542 11.1486C5.35561 11.0257 5.42978 10.914 5.52361 10.82C5.61744 10.7261 5.72903 10.6517 5.85189 10.6014C5.97475 10.551 6.10641 10.5256 6.23919 10.5267C6.37197 10.5277 6.50321 10.5552 6.62525 10.6075C6.74729 10.6599 6.85769 10.736 6.95 10.8314L10.485 14.3664L16.85 8.00341C17.0375 7.81577 17.2919 7.7103 17.5571 7.71021C17.8224 7.71011 18.0769 7.8154 18.2645 8.00291C18.4521 8.19042 18.5576 8.44478 18.5577 8.71005C18.5578 8.97532 18.4525 9.22977 18.265 9.41741L11.193 16.4894C11.1002 16.5822 10.9899 16.6558 10.8686 16.7059C10.7473 16.756 10.6173 16.7817 10.486 16.7814Z" fill="#2FAB73"/>
</svg>
