<svg width="33" height="33" viewBox="0 0 33 33" fill="none" xmlns="http://www.w3.org/2000/svg">
<path fill-rule="evenodd" clip-rule="evenodd" d="M0.5 16.6792C0.5 7.84264 7.66344 0.679199 16.5 0.679199C25.3366 0.679199 32.5 7.84264 32.5 16.6792C32.5 25.5158 25.3366 32.6792 16.5 32.6792C7.66344 32.6792 0.5 25.5158 0.5 16.6792Z" fill="white"/>
<path d="M12.2409 23.8537C13.4957 24.5844 14.9498 25 16.5019 25C21.1898 25 25 21.1873 25 16.5C25 11.8127 21.1898 8 16.5019 8H16.4981C11.8103 8 8 11.8117 8 16.5C8 18.17 8.48412 19.7324 9.32198 21.0482L8.54505 23.3641L7.91716 25.2358L9.79762 24.6347L12.2409 23.8537Z" fill="#1D413A" stroke="white" stroke-width="2"/>
<path d="M20.866 19.5906C20.685 20.1015 19.9669 20.5252 19.3941 20.649C19.0022 20.7324 18.4903 20.799 16.7672 20.0846C14.5631 19.1715 13.1438 16.9318 13.0331 16.7865C12.9272 16.6412 12.1425 15.6006 12.1425 14.5243C12.1425 13.4481 12.6891 12.924 12.9094 12.699C13.0903 12.5143 13.3894 12.4299 13.6763 12.4299C13.7691 12.4299 13.8525 12.4346 13.9275 12.4384C14.1478 12.4477 14.2585 12.4609 14.4038 12.8087C14.5847 13.2446 15.0253 14.3209 15.0778 14.4315C15.1313 14.5421 15.1847 14.6921 15.1097 14.8374C15.0394 14.9874 14.9775 15.054 14.8669 15.1815C14.7563 15.309 14.6513 15.4065 14.5406 15.5434C14.4394 15.6624 14.325 15.7899 14.4525 16.0102C14.58 16.2259 15.0206 16.9449 15.6694 17.5224C16.5066 18.2677 17.1853 18.5059 17.4281 18.6071C17.6091 18.6821 17.8247 18.6643 17.9569 18.5237C18.1247 18.3427 18.3319 18.0427 18.5428 17.7474C18.6928 17.5356 18.8822 17.5093 19.081 17.5843C19.2835 17.6546 20.355 18.1843 20.5753 18.294C20.7956 18.4046 20.941 18.4571 20.9944 18.5499C21.0469 18.6427 21.0469 19.0787 20.866 19.5906Z" fill="white"/>
</svg>
