<svg width="33" height="33" viewBox="0 0 33 33" fill="none" xmlns="http://www.w3.org/2000/svg">
<path fill-rule="evenodd" clip-rule="evenodd" d="M16.5 0.679199C7.66344 0.679199 0.5 7.84264 0.5 16.6792C0.5 25.5158 7.66344 32.6792 16.5 32.6792C25.3366 32.6792 32.5 25.5158 32.5 16.6792C32.5 7.84264 25.3366 0.679199 16.5 0.679199ZM23.1679 11.1795C23.9022 11.381 24.4805 11.9748 24.6768 12.7288C25.0335 14.0953 25.0335 16.9466 25.0335 16.9466C25.0335 16.9466 25.0335 19.7979 24.6768 21.1645C24.4805 21.9185 23.9022 22.5123 23.1679 22.7139C21.8371 23.08 16.5001 23.08 16.5001 23.08C16.5001 23.08 11.1632 23.08 9.8323 22.7139C9.09795 22.5123 8.51962 21.9185 8.32335 21.1645C7.9668 19.7979 7.9668 16.9466 7.9668 16.9466C7.9668 16.9466 7.9668 14.0953 8.32335 12.7288C8.51962 11.9748 9.09795 11.381 9.8323 11.1795C11.1632 10.8133 16.5001 10.8133 16.5001 10.8133C16.5001 10.8133 21.8371 10.8133 23.1679 11.1795Z" fill="white"/>
<path fill-rule="evenodd" clip-rule="evenodd" d="M14.8999 19.8785V14.5452L19.1666 17.2119L14.8999 19.8785Z" fill="white"/>
</svg>
